<svg xmlns="http://www.w3.org/2000/svg" width="20" height="14" viewBox="0 0 20 14">
  <metadata><?xpacket begin="﻿" id="W5M0MpCehiHzreSzNTczkc9d"?>
<x:xmpmeta xmlns:x="adobe:ns:meta/" x:xmptk="Adobe XMP Core 5.6-c138 79.159824, 2016/09/14-01:09:01        ">
   <rdf:RDF xmlns:rdf="http://www.w3.org/1999/02/22-rdf-syntax-ns#">
      <rdf:Description rdf:about=""/>
   </rdf:RDF>
</x:xmpmeta>
                                                                                                    
                                                                                                    
                                                                                                    
                                                                                                    
                                                                                                    
                                                                                                    
                                                                                                    
                                                                                                    
                                                                                                    
                                                                                                    
                                                                                                    
                                                                                                    
                                                                                                    
                                                                                                    
                                                                                                    
                                                                                                    
                                                                                                    
                                                                                                    
                                                                                                    
                                                                                                    
                           
<?xpacket end="w"?></metadata>
<defs>
    <style>
      .cls-1 {
        fill: #510fad;
        fill-rule: evenodd;
      }
    </style>
  </defs>
  <path id="arrow_next" class="cls-1" d="M448,1961h18a1,1,0,0,1,1,1v0.03a1,1,0,0,1-1,1H448a1,1,0,0,1-1-1V1962A1,1,0,0,1,448,1961Zm11.464-5.68a0.984,0.984,0,0,1,1.415,0l5.656,5.8a1.031,1.031,0,0,1,0,1.44,0.983,0.983,0,0,1-1.414,0l-5.657-5.79A1.045,1.045,0,0,1,459.464,1955.32Zm0,13.4a1.045,1.045,0,0,1,0-1.45l5.657-5.8a0.983,0.983,0,0,1,1.414,0,1.043,1.043,0,0,1,0,1.45l-5.656,5.8A0.984,0.984,0,0,1,459.464,1968.72Z" transform="translate(-447 -1955.03)"/>
</svg>
