<svg 
 xmlns="http://www.w3.org/2000/svg"
 xmlns:xlink="http://www.w3.org/1999/xlink"
 width="20px" height="15px">
<path fill-rule="evenodd"  fill="rgb(255, 236, 0)"
 d="M19.608,7.805 C19.581,7.841 19.567,7.884 19.535,7.917 L13.879,13.716 C13.488,14.116 12.855,14.116 12.464,13.716 C12.074,13.315 12.074,12.666 12.464,12.266 L16.595,8.031 L1.000,8.031 C0.448,8.031 -0.000,7.583 -0.000,7.031 L-0.000,7.000 C-0.000,6.448 0.448,6.000 1.000,6.000 L16.595,6.000 L12.464,1.765 C12.074,1.365 12.074,0.716 12.464,0.316 C12.855,-0.085 13.488,-0.085 13.879,0.316 L19.535,6.115 C19.567,6.148 19.580,6.190 19.607,6.225 C19.840,6.408 20.000,6.680 20.000,7.000 L20.000,7.031 C20.000,7.350 19.841,7.622 19.608,7.805 Z"/>
</svg>


