<svg xmlns="http://www.w3.org/2000/svg" width="80.5" height="65.12" viewBox="0 0 80.5 65.12">
  <metadata><?xpacket begin="﻿" id="W5M0MpCehiHzreSzNTczkc9d"?>
<x:xmpmeta xmlns:x="adobe:ns:meta/" x:xmptk="Adobe XMP Core 5.6-c138 79.159824, 2016/09/14-01:09:01        ">
   <rdf:RDF xmlns:rdf="http://www.w3.org/1999/02/22-rdf-syntax-ns#">
      <rdf:Description rdf:about=""/>
   </rdf:RDF>
</x:xmpmeta>
                                                                                                    
                                                                                                    
                                                                                                    
                                                                                                    
                                                                                                    
                                                                                                    
                                                                                                    
                                                                                                    
                                                                                                    
                                                                                                    
                                                                                                    
                                                                                                    
                                                                                                    
                                                                                                    
                                                                                                    
                                                                                                    
                                                                                                    
                                                                                                    
                                                                                                    
                                                                                                    
                           
<?xpacket end="w"?></metadata>
<defs>
    <style>
      .cls-1 {
        fill: #727173;
        fill-rule: evenodd;
        opacity: 0.1;
      }
    </style>
  </defs>
  <path id="_" data-name="“" class="cls-1" d="M144.18,2503.83a17.532,17.532,0,0,0,12.43-4.84,15.66,15.66,0,0,0,5.17-11.88,16.425,16.425,0,0,0-7.48-14.08l9.02-34.32H146.6l-14.3,29.48a92.7,92.7,0,0,0-4.4,10.78,26.358,26.358,0,0,0-1.32,7.92,16.047,16.047,0,0,0,5.06,12.1,17.42,17.42,0,0,0,12.54,4.84h0Zm43.78,0a17.532,17.532,0,0,0,12.43-4.84,15.66,15.66,0,0,0,5.17-11.88,16.425,16.425,0,0,0-7.48-14.08l9.02-34.32H190.38l-14.3,29.48a92.7,92.7,0,0,0-4.4,10.78,26.358,26.358,0,0,0-1.32,7.92,16.047,16.047,0,0,0,5.06,12.1,17.42,17.42,0,0,0,12.54,4.84h0Z" transform="translate(-126.594 -2438.72)"/>
</svg>
