<svg viewBox="0 0 100 100" id="fb" ><path d="M50,3.84C24.506,3.84,3.84,24.506,3.84,50S24.506,96.16,50,96.16S96.16,75.494,96.16,50S75.494,3.84,50,3.84  z M65.137,52.572c-1.854-0.031-3.549,0.023-5.704-0.07c-0.35-0.016-5.963,0.068-5.946,0.17c0.408,2.496-0.178,5.148-0.143,7.672  c0.021,1.471,0.453,14.779,0.254,19.688l-11.123,0.102c-0.046-4.18,0.158-8.479-0.023-13.992  c-0.037-1.133-0.074-13.061-0.206-13.689c0,0-4.916,0.035-7.214,0.049c0,0-0.031-4.402-0.031-5.891c0-1.463,0-2.924,0-4.387  c0,0,5.738-0.318,7.385-0.461c0,0,0.168-5.584,0.396-7.393c0.263-2.066,0.289-4.154,1.502-5.982  c2.223-3.346,4.417-6.295,8.504-7.184c1.546-0.338,11.741-2.342,12.119-0.693l-0.232,9.928c-2.772,0-6.094-0.281-8.923,1.82  c-1.575,1.172-2.01,2.148-2.169,4.076c-0.095,1.121-0.117,5.658-0.117,5.658c1.494,0.213,3.705,0.119,5.311,0  c1.814-0.135,6.471,0.346,6.471,0.346C65.246,45.342,65.126,52.275,65.137,52.572z" /></svg>

<?xml version="1.0" ?><svg  id="vk" version="1.1"   xmlns="http://www.w3.org/2000/svg" xmlns:xlink="http://www.w3.org/1999/xlink">
	 <symbol xmlns="http://www.w3.org/2000/svg" id="vk" viewBox="0 0 100 100">
	<path d="M50,3.84C24.506,3.84,3.84,24.506,3.84,50S24.506,96.16,50,96.16S96.16,75.494,96.16,50S75.494,3.84,50,3.84  z M74.808,67.517c-1.97,1.232-9.975,1.599-11.913,0.191c-1.063-0.772-2.035-1.738-2.958-2.658c-0.646-0.643-1.379-0.955-1.934-1.653  c-0.453-0.571-0.764-1.245-1.241-1.809c-0.805-0.946-2.044-1.751-3.024-0.595c-1.476,1.739,0.232,5.154-1.736,6.453  c-0.66,0.436-1.326,0.562-2.151,0.5l-1.827,0.083c-1.073,0.021-2.773,0.031-3.994-0.189c-1.362-0.246-2.487-0.99-3.719-1.536  c-2.338-1.037-4.565-2.45-6.26-4.407c-4.613-5.33-10.809-12.66-13.216-19.361c-0.495-1.377-1.803-4.104-0.563-5.285  c1.686-1.225,9.961-1.57,11.252,0.324c0.524,0.77,0.855,1.896,1.226,2.769c0.462,1.088,0.712,2.113,1.434,3.076  c0.639,0.854,1.11,1.713,1.604,2.649c0.555,1.051,1.079,2.059,1.754,3.026c0.458,0.658,1.669,1.967,2.434,2.064  c1.868,0.239,1.752-4.3,1.613-5.408c-0.133-1.068-0.167-2.201-0.132-3.284c0.03-0.924,0.113-2.226-0.434-2.98  c-0.892-1.23-2.879-0.31-3.034-1.963c0.328-0.469,0.259-0.885,2.45-1.607c1.726-0.567,2.841-0.549,3.979-0.458  c2.32,0.186,4.78-0.442,7.02,0.31c2.14,0.721,1.809,3.762,1.737,5.584c-0.097,2.487,0.007,4.915,0,7.44  c-0.003,1.149-0.049,2.268,1.353,2.174c1.314-0.087,1.448-1.193,2.075-2.105c0.872-1.272,1.673-2.562,2.561-3.829  c1.197-1.713,1.559-3.638,2.686-5.393c0.403-0.627,0.75-1.963,1.371-2.459c0.47-0.377,1.363-0.18,1.932-0.18h1.353  c1.035,0,2.091-0.008,3.155,0.029c1.532,0.053,3.248-0.299,4.767-0.084c6.555,0.925-8.239,14.938-7.469,17.44  c0.532,1.728,3.907,3.659,5.125,5.074C73.701,61.345,78.679,65.092,74.808,67.517z"/>
	</symbol>
</svg>